<mxfile host="app.diagrams.net" modified="2024-06-24T05:29:44.719Z" agent="Mozilla/5.0 (Windows NT 10.0; Win64; x64) AppleWebKit/537.36 (KHTML, like Gecko) Chrome/126.0.0.0 Safari/537.36" version="24.6.2" etag="rU4NX5jjzJeIxyBp5C0x" type="github">
  <diagram name="第 1 页" id="-Z93WJEncWPUmkcu73us">
    <mxGraphModel>
      <root>
        <mxCell id="0" />
        <mxCell id="1" parent="0" />
      </root>
    </mxGraphModel>
  </diagram>
</mxfile>
